<svg xmlns="http://www.w3.org/2000/svg" id="Layer_1" viewBox="0 0 512 512">
  <g>
    <g>
      <g>
        <g>
          <rect width="182.09" height="308.78" x="249.65" y="100" fill="#fff"/>
          <path fill="#3079db" d="m431.74,86.19v13.81h-182.09v-13.81c0-4.69,3.8-8.49,8.5-8.49h165.1c4.69,0,8.49,3.8,8.49,8.49Z"/>
          <path fill="#3079db" d="m249.65,408.79h182.09v13.57c0,4.69-3.8,8.5-8.49,8.5h-165.1c-4.69,0-8.5-3.8-8.5-8.5v-13.57Z"/>
          <rect width=".94" height="308.89" x="249.65" y="100" fill="#47393d"/>
        </g>
        <path fill="#e8dfde" d="m363.64,88.97h-45.88c-.45,0-.82-.37-.82-.82s.37-.82.82-.82h45.88c.45,0,.82.37.82.82s-.37.82-.82.82Z"/>
      </g>
      <g>
        <g>
          <rect width="73.37" height="72.01" x="270.31" y="280.66" fill="#d7e7ff"/>
          <rect width="60.33" height="11.2" x="350.75" y="280.66" fill="#d7e7ff"/>
          <rect width="60.33" height="11.2" x="350.75" y="297.7" fill="#d7e7ff"/>
          <rect width="60.33" height="11.2" x="350.75" y="314.42" fill="#d7e7ff"/>
        </g>
        <rect width="140.76" height="15.04" x="270.31" y="363.05" fill="#d7e7ff"/>
        <rect width="140.76" height="6.5" x="270.31" y="385.1" fill="#d7e7ff"/>
        <rect width="140.76" height="15.04" x="270.31" y="241.42" fill="#d7e7ff"/>
        <rect width="140.76" height="6.5" x="270.31" y="263.47" fill="#d7e7ff"/>
        <rect width="73.37" height="72.01" x="270.31" y="156.19" fill="#d7e7ff"/>
        <rect width="60.33" height="11.2" x="350.75" y="156.19" fill="#d7e7ff"/>
        <rect width="60.33" height="11.2" x="350.75" y="173.23" fill="#d7e7ff"/>
        <rect width="60.33" height="11.2" x="350.75" y="189.95" fill="#d7e7ff"/>
        <rect width="140.76" height="15.04" x="270.31" y="116.95" fill="#d7e7ff"/>
        <rect width="140.76" height="6.5" x="270.31" y="139" fill="#d7e7ff"/>
      </g>
    </g>
    <g>
      <rect width="167.02" height="217.62" x="150.63" y="141.48" fill="#fff" rx="1.98" ry="1.98"/>
      <path fill="#d7e7ff" d="m208.61,177.4c0,4.46-1.34,8.61-3.64,12.07-.01.03-.02.05-.04.07-1.65,2.48-3.8,4.6-6.3,6.21-1.87,1.23-3.95,2.17-6.16,2.76-.71.2-1.43.36-2.17.48-.61.1-1.24.18-1.87.22-.39.03-.78.05-1.18.06-.17.01-.35.01-.52.01-1.19,0-2.35-.09-3.49-.28-.12-.02-.24-.04-.36-.06-.29-.05-.58-.11-.87-.17-.49-.11-.98-.24-1.46-.38-1.54-.45-3.01-1.07-4.39-1.83-1.28-.71-2.48-1.54-3.58-2.48-.06-.04-.12-.09-.17-.15-4.63-4-7.56-9.93-7.56-16.53,0-12.08,9.8-21.88,21.88-21.88s21.88,9.8,21.88,21.88Z"/>
      <g>
        <path fill="#5e6ccf" d="m176.16,196.56c-1.28-.71-2.48-1.54-3.58-2.48-.06-.04-.12-.09-.17-.15l.12-.39.95-2.95c1.52.46,2.3,2.92,2.68,5.97Z"/>
        <g>
          <g>
            <path fill="#3958e7" d="m183.43,185.92s.02.04.02.04c.06-.02.01-.04-.02-.04Z"/>
            <path fill="#11478e" d="m204.93,189.54c-1.65,2.48-3.8,4.6-6.3,6.21-1.87,1.23-3.95,2.17-6.16,2.76-.71.2-1.43.36-2.17.48-.61.1-1.24.18-1.87.22-.39.03-.78.05-1.18.06-.17.01-.35.01-.52.01-1.19,0-2.35-.09-3.49-.28l-.22,1.18c-.05-.42-.1-.84-.14-1.24-.29-.05-.58-.11-.87-.17-.49-.11-.98-.24-1.46-.38-1.54-.45-3.01-1.07-4.39-1.83-1.28-.71-2.48-1.54-3.58-2.48-.02-.18-.03-.35-.05-.54-.05-.67-.08-1.39-.09-2.22.76-1.21,4.29-3.09,7.11-4.45,1.64-.82,3.04-1.44,3.5-1.66l.08-.04h0v.02h0v.02c.07.11.23.56.29.72-.01,0-.02-.01-.02-.01l.05.18,1.77-1.03.27-.15.05-.03h.14s3.04-.32,3.04-.32l3.45-.34h.01l.85-.08,2.48-.25h.01s.01.01.01.01l1.04.54h.01c.59.26,1.18.55,1.78.84.75.35,1.51.7,2.28.94,1.48.47,2.41.4,3.44,1.78.25.35.47.71.65,1.08.08.15.15.3.2.45Z"/>
            <path fill="#f0eaea" d="m195.53,183.89v.02l-.74,4.55-3.54,9.07-.95,1.46c-.61.1-1.24.18-1.87.22-.39.03-.78.05-1.18.06-.17.01-.35.01-.52.01-1.19,0-2.35-.09-3.49-.28l-.22,1.18c-.05-.42-.1-.84-.14-1.24-.29-.05-.58-.11-.87-.17l-.46-4.31v-.08l-.4-3.75,1.88-5.16s.01-.03.01-.04c.03-.09.05-.17.08-.21,0,0,0-.01.01-.01h0v-.02h0v-.02h.01s2.07-.22,2.07-.22l.28-.03.2-.02,3-.31,3.48-.36h.01l.85-.08,2.49-.26h.01Z"/>
          </g>
          <g>
            <path fill="#133547" d="m196.49,165.26h0c1.27,1.79,1.28,4.23.47,6.31-.18.48-.44.96-.66,1.45-.42.8-.93,1.57-1.45,2.3-.72,1.09-1.44,2.14-2.11,3.22-1.7-1.07-3.35-2.11-5.06-3.18-1.09-.68-2.16-1.81-3.35-2.35-1.64-.72-3.73-1.03-5.29-1.97-.85-.52-1.56-1.26-1.91-2.34-.24-.69-.08-1.53.53-1.96.38-.26.88-.34,1.21-.68.22-.24.3-.53.42-.84.09-.22.18-.48.31-.7h0s.03-.05.03-.09c.08-.3.24-.61.44-.92.77-1.26,1.87-2.37,3.35-2.89,1.65-.55,3.49-.47,5.18,0s3.22,1.28,4.72,2.14c1.17.67,2.39,1.41,3.17,2.51h0Z"/>
            <g>
              <path fill="#ffbbae" d="m193.79,182.08c.06.38.16.61-.07.94-.44.63-1.25,1.25-2.03,1.33-.2.02-.41.01-.61.08-.26.08-.46.28-.67.45-.71.58-1.59.9-2.47,1.17-.36.11-.69.26-1.07.33-.3.05-.63.09-.9-.07-.49-.29-.78-.97-.76-1.51.02-.63-.01-1.31-.11-1.94l-.26-1.25-.48-2.7-.11-.69-.15-.89-.26-1.49,4.34-1.03,3.66-.84.46-.11.11.56.15.92.41,2.21.07.48.19.93.56,3.1h0Z"/>
              <path fill="#c1603a" d="m184.14,179.61h0c2.4-1.87,6.08-4.43,7.73-4.38l.67,1.75c-.1.29-.11.66-.33.96-4.85,6.94-7.27,4.3-7.27,4.3l-.79-2.63h0Z"/>
            </g>
            <path fill="#133547" d="m180.07,163.51h0c.52.61,1.34,1.45,1.96,1.6,0,0-1.59,3.83-2.67,6.03-.1-.07-.23-.09-.32-.11-.85-.52-1.56-1.26-1.91-2.34-.45-1.3.77-2.14,1.58-3.03.62-.69.88-1.41,1.36-2.16h0Z"/>
            <path fill="#ffbbae" d="m195.56,174.96h0c-.64.75-1.68,1.41-2.68,1.81,0,0-2.48,5.39-7.86,5.47-3.85.08-5.71-3.77-6.08-6.88-.47-3.95-.76-9.15,3.06-11.79,1.91-1.32,4.52-1.69,6.73-.9,2.56.86,4.35,3.01,6.04,5.06.54.69,1.11,1.37,1.41,2.17.21.53.27,1.14.15,1.68-.15.63-.17.76-.16,1.33.05.81-.07,1.39-.6,2.04h0Z"/>
            <path fill="#121136" d="m185.21,172.7c.15.38.61.59,1.01.45.4-.14.62-.59.48-.97-.15-.38-.61-.59-1.01-.45s-.62.59-.48.97Z"/>
            <g>
              <path fill="#133547" d="m185.21,172.7c.15.38.61.59,1.01.45.4-.14.62-.59.48-.97-.15-.38-.61-.59-1.01-.45s-.62.59-.48.97Z"/>
              <path fill="#fff" d="m185.9,172.47c.07.19.26.28.46.21.2-.07.3-.25.23-.44s-.26-.28-.46-.21c-.2.07-.29.29-.23.44Z"/>
            </g>
            <g>
              <path fill="#133547" d="m179.62,173.54c.15.38.61.59,1.01.45.4-.14.62-.59.48-.97s-.61-.59-1.01-.45c-.4.14-.62.59-.48.97Z"/>
              <path fill="#fff" d="m180.3,173.31c.07.19.26.28.46.21.2-.07.3-.25.23-.44s-.26-.28-.46-.21c-.2.07-.3.25-.23.44Z"/>
            </g>
            <path fill="#0a3056" d="m197.38,167.49c-.07.1-.13.21-.13.33,0,.1.02.21.06.31.2.56.59,1.05.71,1.63.14.68-.13,1.41-.66,1.85s-.76.74-1.06,1.4c-.03.05-.07.13-.1.18-.02-.36-.16-.75-.4-1.15-.8-1.3-2.01-1.15-2.99-.13-.47.48-.65.99-1.02,1.55-.27.41-1.29,1.22-1.17.1.05-.46.25-1.1.17-1.53-.06-.36-.3-.52-.44-.86-.17-.42-.43-.77-.58-1.22-.17-.49.34-.74.19-1.17-.31-.06-1.34.03-1.44-.32-.12-.4.1-.4-.29-.52-.32-.1-.95.06-1.28.07-.35.01-.54-.22-.82-.25-.23-.03-.63.22-.86.27-.5.13-1.07.2-1.58.04-.57-.17-.54-.66-1.04-.86-.59-.24-1.29-.16-1.83.18-.16.1-.3.23-.48.29s-.41,0-.49-.16c-.04-.08-.03-.18-.07-.26-.09-.19-.33-.23-.54-.24-.89-.05-.46.71-1.04,1.14-.29.21-.67.28-1.03.26-.04,0-.07,0-.11-.03-.04-.03-.07-.07-.08-.12-.27-.63-.87-1.58-.23-2.23.17-.17.45-.24.59-.45.14-.21.08-.49-.02-.72s-.25-.44-.29-.69c-.03-.19,0-.37.04-.56.02-.12.05-.25.12-.35.13-.2.39-.25.62-.33.43-.14.87-.42,1.13-.79.24-.35.3-.69.72-.91.28-.15.61-.21.92-.26.15-.03.3-.05.44-.13.45-.26.4-.95.73-1.35.7-.87,1.85.03,2.72-.18.34-.08.64-.32.97-.43.57-.2,1.2-.25,1.8-.17.16.02.33.05.47.13.22.11.38.3.58.45.3.21.68.31,1.04.26.29-.04.56-.16.86-.22s.62-.01.82.21c.17.21.17.52.29.76.29.62,1.42.85,2.01,1.05.8.27,1.51.43,2.04,1.18.35.5.21,1.15.48,1.67.24.46.67.61,1.1.84.78.42,1.08,1.53.61,2.28-.04.06-.08.12-.12.18h0Z"/>
            <g>
              <path fill="#c1603a" d="m194.35,173.04h0c-.16-.22-.36-.39-.6-.56.27.12.51.29.71.46.2.21.37.43.42.75.04.28-.03.57-.21.81-.17.23-.4.43-.63.59.18-.19.4-.39.54-.61.13-.23.18-.48.13-.76-.04-.24-.21-.49-.36-.67h0Z"/>
              <path fill="#c1603a" d="m193.53,173.73h0l-.47.24c.11-.1.26-.2.42-.31.15-.1.31-.17.48-.2.16-.07.36-.1.54-.05.09.03.19.09.24.16s.07.15.04.24c-.01-.08-.07-.15-.12-.23-.05-.07-.1-.1-.19-.09-.13-.02-.3,0-.46.07-.16.07-.33.09-.48.16h0Z"/>
            </g>
            <path fill="#133547" d="m188.02,171.16h0s-.04,0-.08.01-.09-.03-.13-.06c-.47-.53-.95-.87-1.51-.9-.82-.07-1.41.43-1.46.43-.08.05-.16.07-.21,0,0-.04-.02-.12.06-.17.04,0,.71-.6,1.66-.51.65.06,1.21.38,1.69.99.05.07.03.16,0,.2h0Z"/>
            <path fill="#133547" d="m181.62,171.2h0c.08-.01.04,0,0,0s-.08.01-.13-.02c-.65-.59-1.2-.83-1.73-.74h0c-.66.1-.99.72-.99.72-.03.09-.11.1-.2.07s-.1-.1-.07-.19c0-.04.39-.71,1.18-.88.62-.1,1.26.17,1.96.83.05.07.07.15,0,.2h0Z"/>
            <g>
              <path fill="#c1603a" d="m182.38,172.7h0c-.13-.24-.21-.44-.33-.64.12.2.25.39.33.6s.11.42.15.67c.03.43-.03.92-.19,1.33-.1.23-.2.42-.26.6s-.11.41,0,.61c.07.16.28.3.51.35.19.06.46.06.69.07-.22.03-.45.03-.68-.02s-.44-.19-.6-.38c-.12-.2-.12-.46-.02-.69.05-.23.2-.42.26-.6.16-.42.23-.82.25-1.25,0-.22-.03-.43-.1-.63h0Z"/>
              <path fill="#c1603a" d="m184.17,176.15c-.13.02-.26.08-.39.1.07-.14.24-.21.36-.27.17-.03.31-.05.46.06-.18.03-.31.05-.43.11h0Z"/>
            </g>
            <g>
              <path fill="#c1603a" d="m181.91,177.91h0c.73.29,1.55.34,2.33.3.39-.03.79-.09,1.17-.19.39-.09.76-.23,1.11-.4-.78.12-1.54.23-2.3.28-.38.03-.76.04-1.15.04-.39,0-.77,0-1.16-.03h0Z"/>
              <path fill="#c1603a" d="m183.73,179.03c.2,0,.4,0,.62-.11-.19-.13-.39-.18-.59-.2-.2,0-.4,0-.62.11.19.13.39.18.59.2Z"/>
            </g>
            <g>
              <rect width="5.45" height=".19" x="187.89" y="171.89" fill="#fff" transform="rotate(-10.46 190.591 172.005)"/>
              <path fill="#fff" d="m188.05,172.56c-.01-.07-.02-.13-.04-.19-.24-.81-1.11-1.42-2.14-1.42-1.12,0-2.04.71-2.19,1.63h0c-.01.06-.01.11-.01.16-.01.03-.01.07-.01.1v.03c.02,1.04,1,1.87,2.21,1.87.28,0,.55-.04.79-.13.83-.27,1.42-.96,1.42-1.77,0-.1-.01-.19-.03-.28Zm-1.58,1.9c-.19.05-.39.08-.6.08-1.11,0-2.01-.76-2.01-1.7v-.02c.01-.92.91-1.67,2.01-1.67s2.02.76,2.02,1.69c0,.76-.59,1.41-1.42,1.62Z"/>
              <path fill="#fff" d="m182.19,172.87c-.03-.09-.07-.18-.12-.27-.1-.18-.23-.35-.39-.49-.4-.38-.97-.61-1.61-.61-.03,0-.06,0-.08.01-.5,0-.95.16-1.31.43-.5.33-.82.86-.82,1.45,0,.68.41,1.26,1.03,1.59.34.19.75.3,1.18.3,1.22,0,2.21-.84,2.21-1.89,0-.18-.03-.36-.09-.52Zm-2.12,2.22c-.45,0-.86-.13-1.2-.34h-.01c-.46-.3-.77-.75-.8-1.26-.01-.03-.01-.07-.01-.1s0-.06.01-.09c.02-.45.26-.85.62-1.14.36-.29.86-.47,1.39-.47.17,0,.34.02.49.05h.02s.02.01.03.01c.16.04.29.09.43.15h.01c.62.29,1.04.86,1.04,1.49,0,.93-.9,1.7-2.02,1.7Z"/>
              <path fill="#fff" d="m183.68,172.9c-.16-.24-.66-.86-1.03-.79-.26.05-.39.43-.46.75l-.19-.04c.12-.54.33-.85.61-.9.56-.1,1.16.77,1.22.87l-.16.11h0Z"/>
              <rect width=".78" height=".19" x="177.96" y="173.3" fill="#fff"/>
            </g>
          </g>
          <path fill="#f9ba46" d="m187.82,190.18l-1.07,1.58.5,7.51c-.17.01-.35.01-.52.01-1.19,0-2.35-.09-3.49-.28l1.36-7.32-.67-2.36-.5-1.75,2.6-1.23.09-.04h.01s.11.1.11.1l2.61,2.27-1.03,1.51Z"/>
          <path fill="#fff" d="m193.92,181.36c-.06-.12-.18-.15-.3-.09l-7.53,5.06s1.46,2.27,2.03,4.98l7.4-7.42-1.6-2.53h0Z"/>
          <path fill="#fff" d="m184.96,183.18c.03-.06.15-.03.21.06l.95,3.06-3.16,4.33c-.39-1.88-.44-3.72.17-5.47l1.82-1.97h0Z"/>
          <g>
            <path fill="#0e386b" d="m183.13,185.17h0v.02h0v.02s-.01.01-.01.01c-.03.04-.05.12-.08.21,0,.01-.01.03-.01.04-.03.1-.07.23-.1.39-.01.01-.01.02-.01.03-.34,1.43-.87,5.18-.04,13.05-.29-.05-.58-.11-.87-.17-.49-.11-.98-.24-1.46-.38l-1.02-3.15,2.02-.78.12-.05-.12-.03-2.89-.8.89-6.71.02-.18,3.48-1.48.08-.04Z"/>
            <path fill="#0e386b" d="m198.37,185.27v.02s-2.57,7.31-2.57,7.31l-2.74,1.29,1.26,2.2-1.85,2.42c-.71.2-1.43.36-2.17.48-.61.1-1.24.18-1.87.22l7.09-15.3h.01v-.02l2.84,1.38Z"/>
          </g>
        </g>
        <path fill="#11478e" d="m204.97,189.47s-.02.05-.04.07c-1.65,2.48-3.8,4.6-6.3,6.21.38-2.5,2.07-5.11,3.57-7.55h.01c.09-.41,1.45-.73,1.69-.38.23.34.51.77.83,1.27.08.12.16.25.24.38Z"/>
      </g>
      <g>
        <path fill="#599bf1" d="m235.23,171.52c-.57.3-1.84.7-3.47.7-3.64,0-6.01-2.47-6.01-6.16s2.54-6.41,6.48-6.41c1.3,0,2.44.32,3.04.62l-.5,1.7c-.52-.3-1.35-.57-2.54-.57-2.77,0-4.26,2.04-4.26,4.56,0,2.79,1.79,4.51,4.19,4.51,1.25,0,2.07-.32,2.69-.6l.37,1.65Z"/>
        <path fill="#599bf1" d="m239.09,159.9l2.37,6.78c.4,1.1.72,2.09.97,3.09h.07c.27-1,.62-1.99,1.02-3.09l2.34-6.78h2.29l-4.74,12.07h-2.09l-4.59-12.07h2.34Z"/>
      </g>
      <rect width="63.64" height="3.23" x="225.76" y="177.4" fill="#599bf1"/>
      <rect width="31.33" height="3.23" x="225.76" y="185.81" fill="#d7e7ff"/>
      <g>
        <rect width="63.64" height="3.23" x="164.85" y="223.46" fill="#d7e7ff"/>
        <rect width="63.64" height="3.23" x="164.85" y="231.73" fill="#d7e7ff"/>
        <rect width="63.64" height="3.23" x="164.85" y="240" fill="#d7e7ff"/>
        <rect width="63.64" height="3.23" x="164.85" y="248.28" fill="#d7e7ff"/>
        <rect width="63.64" height="3.23" x="164.85" y="256.55" fill="#d7e7ff"/>
        <rect width="31.33" height="3.23" x="164.85" y="215.19" fill="#599bf1"/>
      </g>
      <g>
        <rect width="63.64" height="3.23" x="238.55" y="223.46" fill="#d7e7ff"/>
        <rect width="63.64" height="3.23" x="238.55" y="231.73" fill="#d7e7ff"/>
        <rect width="63.64" height="3.23" x="238.55" y="240" fill="#d7e7ff"/>
        <rect width="63.64" height="3.23" x="238.55" y="248.28" fill="#d7e7ff"/>
        <rect width="63.64" height="3.23" x="238.55" y="256.55" fill="#d7e7ff"/>
        <rect width="31.33" height="3.23" x="238.55" y="215.19" fill="#599bf1"/>
      </g>
      <g>
        <rect width="63.64" height="3.23" x="164.85" y="278.49" fill="#d7e7ff"/>
        <rect width="63.64" height="3.23" x="164.85" y="286.76" fill="#d7e7ff"/>
        <rect width="63.64" height="3.23" x="164.85" y="295.03" fill="#d7e7ff"/>
        <rect width="63.64" height="3.23" x="164.85" y="303.3" fill="#d7e7ff"/>
        <rect width="63.64" height="3.23" x="164.85" y="311.57" fill="#d7e7ff"/>
        <rect width="31.33" height="3.23" x="164.85" y="270.22" fill="#599bf1"/>
      </g>
      <g>
        <rect width="63.64" height="3.23" x="238.55" y="278.49" fill="#d7e7ff"/>
        <rect width="63.64" height="3.23" x="238.55" y="286.76" fill="#d7e7ff"/>
        <rect width="63.64" height="3.23" x="238.55" y="295.03" fill="#d7e7ff"/>
        <rect width="63.64" height="3.23" x="238.55" y="303.3" fill="#d7e7ff"/>
        <rect width="63.64" height="3.23" x="238.55" y="311.57" fill="#d7e7ff"/>
        <rect width="31.33" height="3.23" x="238.55" y="270.22" fill="#599bf1"/>
      </g>
      <g>
        <rect width="29.55" height="5.66" x="164.85" y="327.78" fill="#599bf1"/>
        <rect width="29.55" height="5.66" x="201" y="327.78" fill="#599bf1"/>
        <rect width="29.55" height="5.66" x="236.5" y="327.78" fill="#599bf1"/>
        <rect width="29.55" height="5.66" x="272.64" y="327.78" fill="#599bf1"/>
      </g>
    </g>
    <g>
      <g>
        <g>
          <rect width="193.81" height="249.8" x="290.02" y="122.35" fill="#7cb9fc" rx="22.56" ry="22.56"/>
          <g>
            <circle cx="383.91" cy="200.56" r="53.72" fill="#fff"/>
            <rect width="114.85" height="4.44" x="330.41" y="303.28" fill="#fff"/>
            <rect width="114.85" height="4.44" x="330.41" y="319.02" fill="#fff"/>
            <rect width="50.44" height="4.44" x="362.61" y="334.77" fill="#fff"/>
          </g>
        </g>
        <g>
          <g>
            <path fill="#11478e" d="m356.86,246.99c-1.85-1.09-3.64-2.27-5.34-3.56-.39-.3-.77-.59-1.15-.9-2.61-2.1-5.03-4.43-7.21-6.97l7.28-16.08.79-1.35.27-.46.8,3.65,1.7,7.71,2.86,17.96Z"/>
            <g opacity=".1">
              <path fill="#211c3a" d="m356.86,246.99c-1.85-1.09-3.64-2.27-5.34-3.56-.39-.3-.77-.59-1.15-.9l1.02-11.2.91-10.01.17-1.84,1.53,9.55,2.86,17.96Z"/>
            </g>
          </g>
          <g>
            <path fill="#11478e" d="m430.49,227.34c-1.6,2.78-3.45,5.41-5.51,7.85-.21.25-.42.5-.64.74-1.61,1.84-3.34,3.57-5.19,5.18l2.53-15.85,1.92-5.16,1.59-4.28.04-.1.07.16.94,2.08,4.25,9.38Z"/>
            <g opacity=".1">
              <path fill="#211c3a" d="m424.98,235.19c-.21.25-.42.5-.64.74-1.61,1.84-3.34,3.57-5.19,5.18l2.53-15.85,1.52-9.54.4,4.38,1.09,11.94.29,3.15Z"/>
            </g>
          </g>
          <path fill="#02393e" d="m405.91,249.59c-.2.08-.39.17-.59.25-.58-.9-.96-1.44-.99-1.47l.54-.34c.07.1.47.66,1.04,1.56Z"/>
          <g>
            <path fill="#3958e7" d="m375.01,210.06s-.02-.03-.04-.1c.07.02.17.06.04.1Z"/>
            <path fill="#11478e" d="m426.25,217.92s0,.03-.01.04c-.09.72-.41,1.49-.48,2.18-.2,2.19-.39,4.38-.59,6.57-.16,1.78-.32,3.55-.48,5.33-.12,1.3-.23,2.59-.35,3.89-1.61,1.84-3.34,3.57-5.19,5.18-3.95,3.44-8.4,6.3-13.24,8.48-.2.08-.39.17-.59.25-6.56,2.86-13.8,4.44-21.41,4.44-.27,0-.54,0-.81-.01-.63,0-1.26-.03-1.88-.06-.18,0-.35,0-.52-.03-.37-.02-.74-.04-1.11-.08-1.33-.1-2.65-.25-3.95-.46-.19-.02-.39-.05-.58-.09-.07-.01-.14-.02-.21-.04-.47-.07-.93-.16-1.4-.25-5.94-1.17-11.53-3.32-16.59-6.27-1.85-1.09-3.64-2.27-5.34-3.56,0-.72,0-1.44-.01-2.16-.04-3.31-.08-6.63-.12-9.94-.05-4.4-.1-8.8-.16-13.2v-.09c.08-.12.17-.25.27-.37,3.29-4,18.6-7.84,22.24-9.18l.56-.23h.01s.01,0,.01,0c.07.17.52,1.34.65,1.69-.03,0-.05-.02-.05-.02l.12.41,3.96-2.29.61-.35.12-.07.29-.03,6.82-.68h0l7.82-.78h.01l7.48-.75,2.38,1.22h.02c.54.25,1.09.49,1.63.74,5.77,2.56,11.52,5.12,17.29,7.69.54.24,1.18.44,1.71.77.04.02.07.04.11.06.44.28.8.66.93,1.22.06.26.06.53.02.82Z"/>
            <path fill="#f0eaea" d="m402.16,205.4l-1.64,10.28-7.98,20.37-8.38,12.84-3.46,5.29c-.37-.02-.74-.04-1.11-.08-1.33-.1-2.65-.25-3.95-.46-.19-.02-.39-.05-.58-.09l-1.81-7.18-1.18-4.72-1.32-12.51-.02-.18-.89-8.41,4.28-11.76s.01-.04.02-.06c.02-.08.05-.15.07-.21.04-.11.06-.19.08-.23.01-.01.01-.02.01-.03h.01s4.67-.49,4.67-.49l.63-.06.43-.05,6.74-.69h.01l7.82-.8s.01,0,.01,0l7.54-.77Z"/>
          </g>
          <g>
            <path fill="#0a3056" d="m404.33,163.5c-1.74-2.47-4.49-4.13-7.12-5.64-3.37-1.93-6.82-3.76-10.61-4.81-3.8-1.04-7.93-1.21-11.64.02-3.34,1.17-5.8,3.66-7.54,6.5-.46.71-.82,1.41-1,2.08.01.09-.08.1-.06.19h0c-.3.5-.49,1.08-.7,1.57-.27.68-.45,1.35-.94,1.89-.74.76-1.85.93-2.71,1.53-1.37.95-1.74,2.84-1.2,4.4.78,2.44,2.38,4.1,4.29,5.26,3.49,2.1,8.19,2.82,11.89,4.42,2.68,1.22,5.1,3.76,7.54,5.29,3.83,2.41,7.55,4.74,11.38,7.15,1.52-2.43,3.14-4.79,4.74-7.24,1.16-1.65,2.31-3.38,3.26-5.18.49-1.08,1.08-2.18,1.48-3.25,1.82-4.68,1.79-10.16-1.06-14.18h0Z"/>
            <g>
              <path fill="#f9b08e" d="m398.25,201.33l-1.25-6.97-.42-2.08-.16-1.09-.92-4.98-.33-2.08-.25-1.27-1.04.26-8.24,1.89-9.76,2.32.58,3.35.33,1.99.25,1.54,1.08,6.06.59,2.81c.22,1.41.29,2.93.25,4.35-.04,1.23.63,2.75,1.72,3.4.59.36,1.34.26,2.02.15.86-.14,1.6-.48,2.42-.73,1.97-.61,3.95-1.34,5.55-2.63.47-.38.92-.82,1.5-1,.44-.14.91-.13,1.36-.18,1.75-.19,3.56-1.58,4.56-2.99.52-.75.3-1.26.17-2.12h0Z"/>
              <path fill="#ed8b6b" d="m376.56,195.77l1.76,5.91s5.46,5.94,16.36-9.67c.51-.68.53-1.5.75-2.16l-1.5-3.95c-3.7-.11-11.98,5.64-17.37,9.86h0Z"/>
            </g>
            <path fill="#0a3056" d="m367.42,159.57c-1.08,1.68-1.66,3.29-3.06,4.85-1.81,2-4.56,3.88-3.55,6.81.78,2.44,2.38,4.1,4.29,5.26.2.06.49.1.71.25,2.44-4.96,6.01-13.57,6.01-13.57-1.39-.33-3.23-2.23-4.4-3.6h0Z"/>
            <path fill="#f9b08e" d="m402.24,185.31c1.19-1.47,1.46-2.79,1.35-4.6-.02-1.28.03-1.56.37-2.98.28-1.23.15-2.58-.33-3.79-.68-1.81-1.97-3.34-3.18-4.89-3.8-4.61-7.83-9.45-13.59-11.38-4.96-1.77-10.84-.93-15.14,2.03-8.59,5.93-7.93,17.62-6.87,26.5.85,6.99,5.02,15.66,13.68,15.47,12.1-.18,17.67-12.31,17.67-12.31,2.24-.9,4.58-2.37,6.02-4.06h0Z"/>
            <path fill="#121136" d="m380.05,178.04c.9-.33,1.93.15,2.27,1.01s-.18,1.86-1.08,2.18c-.9.33-1.93-.15-2.27-1.01s.18-1.86,1.08-2.18Z"/>
            <g>
              <path fill="#133547" d="m380.05,178.04c.9-.33,1.93.15,2.27,1.01s-.18,1.86-1.08,2.18c-.9.33-1.93-.15-2.27-1.01s.18-1.86,1.08-2.18Z"/>
              <path fill="#fff" d="m381.02,178.71c.45-.16.87.04,1.03.48s-.06.83-.51.99c-.45.16-.87-.04-1.03-.48-.15-.34.06-.83.51-.99Z"/>
            </g>
            <g>
              <path fill="#133547" d="m367.47,179.95c.9-.33,1.93.15,2.27,1.01s-.18,1.86-1.08,2.18c-.9.33-1.93-.15-2.27-1.01s.18-1.86,1.08-2.18Z"/>
              <path fill="#fff" d="m368.44,180.62c.45-.16.87.04,1.03.48s-.06.83-.51.99c-.45.16-.87-.04-1.03-.48s.06-.83.51-.99Z"/>
            </g>
            <path fill="#0a3056" d="m406.38,168.54c-.59-3.07-2.86-5.11-3.77-7.97-.36-1.12-.2-2.21-.92-3.24-.88-1.26-2.29-2.16-3.84-2.47-1.12-.22-2.3-.14-3.42-.4-3.33-.77-5.48-3.58-9.05-4.02-2.65-.33-5.18.49-7.78.4-2.38-.08-5.48.69-7.34,2.1-2.34,1.77-3.97,3.34-5.9,5.64-2.64,3.15-3.09,5.86-3.09,9.69,1.29.15,2.52-.83,3.38-1.68.99-.98,1.77-2.02,2.9-2.74,4.68-3.02,4.3,4.18,7.27,5.66,1.96.98,4.35.28,6.42-.51,2.06-.79,4.33-1.68,6.43-1.02,4.74,1.49,1.54,5.81,2.89,8.76.32.77.85,1.14.98,1.94.16.98-.28,2.42-.4,3.45-.26,2.51,2.02.69,2.64-.24.85-1.23,1.24-2.39,2.3-3.47,2.21-2.27,4.92-2.61,6.73.3.53.92.86,1.78.9,2.6.08-.1.14-.3.22-.4.49-1.08,1.08-2.18,1.48-3.25,1.09-2.92,1.58-6.08.99-9.14h0Z"/>
            <g>
              <path fill="#f9b08e" d="m399.53,180.99c.35.4.73.98.82,1.52.1.62,0,1.19-.3,1.69-.3.5-.8.95-1.21,1.38.51-.36,1.02-.8,1.41-1.32.39-.52.57-1.19.47-1.81-.11-.71-.48-1.2-.94-1.68-.44-.38-.98-.76-1.6-1.03.54.37.98.76,1.35,1.25h0Z"/>
              <path fill="#f9b08e" d="m397.68,182.56c.36-.15.73-.21,1.09-.36.36-.15.73-.21,1.02-.16.19-.03.29.04.42.21.12.16.25.33.27.5.06-.19.03-.37-.09-.53s-.34-.31-.54-.37c-.4-.12-.87-.04-1.22.1-.37.06-.73.21-1.07.44-.34.24-.69.47-.94.7l1.06-.53h0Z"/>
            </g>
            <path fill="#133547" d="m385.29,176.76c.08-.1.14-.3.02-.46-1.08-1.38-2.35-2.1-3.8-2.23-2.13-.21-3.64,1.12-3.73,1.14-.17.12-.14.3-.13.38.12.16.31.13.48.02.09-.01,1.44-1.14,3.28-.98,1.26.07,2.33.82,3.38,2.02.11.07.21.15.31.13s.09-.01.19-.03h0Z"/>
            <path fill="#133547" d="m370.88,176.85c.17-.12.14-.3.02-.46-1.58-1.49-3.01-2.08-4.41-1.86-1.75.37-2.65,1.88-2.64,1.97-.06.19-.03.37.17.43.2.06.39.03.45-.16,0,0,.73-1.39,2.22-1.63h0c1.21-.19,2.44.34,3.9,1.67.11.07.2.06.29.04.09-.02.19-.03,0,0h0Z"/>
            <g>
              <path fill="#ed8b6b" d="m372.62,180.23c.18.46.25.94.23,1.43-.04.98-.2,1.89-.56,2.82-.14.41-.47.85-.59,1.36-.22.52-.23,1.11.05,1.55.37.43.83.75,1.36.86.53.11,1.04.13,1.54.05-.51-.02-1.12-.02-1.55-.14-.53-.11-.99-.43-1.15-.79-.27-.44-.15-.95-.02-1.36s.37-.84.59-1.36c.36-.94.49-2.03.43-3-.09-.57-.17-1.05-.35-1.51-.18-.46-.45-.9-.73-1.35.27.44.45.9.74,1.44h0Z"/>
              <path fill="#ed8b6b" d="m376.63,187.99c.28-.14.58-.19.98-.25-.34-.24-.64-.19-1.04-.13-.28.14-.66.3-.82.62.3-.05.58-.19.88-.24h0Z"/>
            </g>
            <g>
              <path fill="#ed8b6b" d="m371.55,191.95c.88.06,1.75.06,2.62.07.87-.01,1.73-.03,2.58-.1,1.72-.11,3.42-.37,5.18-.64-.8.38-1.63.71-2.5.91-.86.23-1.75.35-2.64.42-1.77.11-3.6-.02-5.25-.67h0Z"/>
              <path fill="#ed8b6b" d="m374.33,194.02c.48-.24.93-.27,1.38-.26.45.04.89.14,1.32.44-.48.25-.93.28-1.38.26-.45-.04-.89-.14-1.32-.44Z"/>
            </g>
          </g>
          <path fill="#f9ba46" d="m384.85,219.51l-2.43,3.57,1.47,21.75h0s.27,4.06.27,4.06l.02.31-2.96,5.01c-.18,0-.35,0-.52-.03-.37-.02-.74-.04-1.11-.08-1.33-.1-2.65-.25-3.95-.46-.19-.02-.39-.05-.58-.09-.07-.01-.14-.02-.21-.04l-1.76-6.26.16-.88.79-4.25h0s3.56-19.21,3.56-19.21l-1.52-5.32h0s-1.11-3.92-1.11-3.92l5.86-2.76h.01l.18-.09h.01s.24.23.24.23h.01l5.86,5.1-2.29,3.36Z"/>
          <path fill="#fff" d="m398.57,199.71l3.59,5.69-16.64,16.69c-1.29-6.1-4.57-11.2-4.57-11.2l16.94-11.39c.27-.13.54-.07.68.2h0Z"/>
          <path fill="#fff" d="m378.4,203.81l-4.09,4.44c-1.37,3.94-1.26,8.08-.38,12.31l7.1-9.73-2.14-6.88c-.13-.2-.41-.27-.48-.13h0Z"/>
          <g>
            <path fill="#0e386b" d="m375.64,253.64c-.19-.02-.39-.05-.58-.09-.07-.01-.14-.02-.21-.04-.47-.07-.93-.16-1.4-.25l-7.25-22.35,4.55-1.77.26-.1-.28-.08-6.47-1.79,2.03-15.47,7.45-3.21.56-.23s0,.02-.01.03c-.02.04-.04.12-.08.23-.02.06-.05.13-.07.21-.01.02-.02.04-.02.06-.08.25-.18.59-.28,1.04-.02.05-.03.1-.04.16-.05.17-.09.36-.13.57-.01.02-.01.05-.01.07-.8,3.88-1.77,13.06.38,31.48h0c.41,3.51.94,7.33,1.6,11.53Z"/>
            <path fill="#0e386b" d="m402.79,224.98l-6.17,2.9,2.84,4.95-16.36,21.44c-.63,0-1.26-.03-1.88-.06-.18,0-.35,0-.52-.03-.37-.02-.74-.04-1.11-.08l4.3-9.26h0s18.27-39.44,18.27-39.44l4.03,1.96,2.38,1.15-5.78,16.47Z"/>
          </g>
        </g>
      </g>
      <g>
        <polygon fill="#fff" points="338.46 266.04 341.79 272.79 349.24 273.87 343.85 279.13 345.12 286.55 338.46 283.05 331.8 286.55 333.07 279.13 327.68 273.87 335.13 272.79 338.46 266.04"/>
        <polygon fill="#fff" points="363.39 266.04 366.73 272.79 374.18 273.87 368.79 279.13 370.06 286.55 363.39 283.05 356.73 286.55 358 279.13 352.61 273.87 360.06 272.79 363.39 266.04"/>
        <polygon fill="#fff" points="388.33 266.04 391.66 272.79 399.11 273.87 393.72 279.13 394.99 286.55 388.33 283.05 381.67 286.55 382.94 279.13 377.55 273.87 385 272.79 388.33 266.04"/>
        <polygon fill="#fff" points="413.26 266.04 416.6 272.79 424.05 273.87 418.65 279.13 419.93 286.55 413.26 283.05 406.6 286.55 407.87 279.13 402.48 273.87 409.93 272.79 413.26 266.04"/>
        <polygon fill="#fff" points="438.2 266.04 441.53 272.79 448.98 273.87 443.59 279.13 444.86 286.55 438.2 283.05 431.53 286.55 432.81 279.13 427.42 273.87 434.87 272.79 438.2 266.04"/>
      </g>
    </g>
    <g>
      <circle cx="481.96" cy="222.53" r="24.04" fill="#fff"/>
      <polygon fill="#fbad27" points="480.73 236.12 468.83 221.54 471.67 219.22 480.49 230.03 494.37 209.98 497.39 212.07 480.73 236.12"/>
    </g>
    <g>
      <g>
        <rect width="111.73" height="66.46" x="188.14" y="86.06" fill="#fbad27" rx="7.16" ry="7.16"/>
        <polygon fill="#fbad27" points="200.66 148.69 200.66 162.88 211.31 148.69 200.66 148.69"/>
      </g>
      <g>
        <g>
          <path fill="#fff" d="m214.33,111.33l2.61-9.11h2.07l2.61,9.11,1.76-9.11h2.65l-3.15,13.65h-2.42l-2.42-9.54-2.54,9.54h-2.42l-3.15-13.65h2.65l1.76,9.11Z"/>
          <path fill="#fff" d="m227.71,115.88v-13.65h2.57v13.65h-2.57Zm.93-11.18v-2.48h8.22v2.48h-8.22Zm0,5.63v-2.48h7.18v2.48h-7.18Zm0,5.54v-2.48h8.22v2.48h-8.22Z"/>
          <path fill="#fff" d="m243.06,115.88l5.22-13.65h1.63l5.22,13.65h-2.77l-3.27-9.33-3.27,9.33h-2.77Zm2.51-2.19v-2.48h7.18v2.48h-7.18Z"/>
          <path fill="#fff" d="m256.82,115.88v-13.66h2.57v13.66h-2.57Zm1.02-5.49v-2.48h4.75c.4,0,.72-.15.96-.44.24-.29.36-.68.37-1.16,0-.48-.12-.87-.36-1.16-.24-.29-.57-.44-.97-.44h-4.75v-2.48h4.96c.76,0,1.42.17,1.99.51.57.34,1.01.81,1.32,1.43.31.61.47,1.33.47,2.15s-.16,1.54-.47,2.15c-.32.61-.76,1.09-1.32,1.43-.56.34-1.22.51-1.98.51h-4.96Zm6.19,5.49l-3.32-5.92,2.75-.43,3.68,6.35h-3.12Z"/>
          <path fill="#fff" d="m269.36,115.88v-13.65h2.57v13.65h-2.57Zm.93-11.18v-2.48h8.22v2.48h-8.22Zm0,5.63v-2.48h7.18v2.48h-7.18Zm0,5.54v-2.48h8.22v2.48h-8.22Z"/>
        </g>
        <g>
          <path fill="#fff" d="m207.17,136.54v-17.04h3.21v17.04h-3.21Zm1.49-6.9v-3.09h9.93v3.09h-9.93Zm7.84,6.9v-17.04h3.21v17.04h-3.21Z"/>
          <path fill="#fff" d="m226.56,119.5v17.04h-3.33v-17.04h3.33Z"/>
          <path fill="#fff" d="m230.07,136.54v-17.05h3.21v17.05h-3.21Zm1.28-6.86v-3.09h5.93c.5,0,.9-.18,1.2-.55.3-.37.46-.85.46-1.45,0-.6-.15-1.09-.45-1.45-.3-.37-.71-.55-1.21-.55h-5.93v-3.09h6.19c.95,0,1.77.21,2.48.63.71.42,1.26,1.02,1.65,1.78.39.77.59,1.66.59,2.68s-.2,1.92-.59,2.68c-.39.77-.94,1.36-1.65,1.78-.7.42-1.53.63-2.47.63h-6.19Zm7.72,6.86l-4.14-7.38,3.43-.54,4.59,7.92h-3.89Z"/>
          <path fill="#fff" d="m248.82,119.5v17.04h-3.33v-17.04h3.33Z"/>
          <path fill="#fff" d="m252.33,136.53v-17.03h3.93l6.34,13.06-.28.3v-13.36h3.07v17.03h-3.95l-6.32-12.86.28-.3v13.16h-3.07Z"/>
          <path fill="#fff" d="m275.35,127.01h5.91v3.33c0,1.28-.26,2.4-.77,3.36-.52.96-1.24,1.7-2.16,2.23s-2.01.79-3.26.79-2.36-.25-3.3-.74c-.94-.5-1.67-1.2-2.19-2.1-.52-.9-.78-1.96-.78-3.16v-5.03c0-1.28.26-2.4.77-3.35.52-.95,1.24-1.69,2.16-2.22.93-.53,2.01-.79,3.26-.79,1.03,0,1.97.21,2.82.63.85.42,1.56,1.01,2.14,1.77.58.76.97,1.64,1.17,2.66h-3.47c-.17-.55-.51-.98-1.03-1.28-.51-.3-1.06-.45-1.64-.45-.87,0-1.56.28-2.09.83-.52.55-.79,1.29-.79,2.2v5.03c0,.8.27,1.45.81,1.94.54.49,1.25.73,2.13.73s1.56-.26,2.09-.79c.52-.53.79-1.26.79-2.21v-.28h-2.58v-3.09Z"/>
        </g>
      </g>
    </g>
    <g>
      <g>
        <g>
          <path fill="#3cb999" d="m489.78,349.99c-.04,7.63-2.64,14.74-5.59,21.37-1.95,4.46-4.16,8.84-6.41,13.09-.43.87-.95,1.73-1.43,2.51h-5.59l-.56.13c0-.09.04-.09.04-.13h-4.55c.3-1.3.61-2.6,1-3.81.04-.3.17-.56.26-.87.04-.13.04-.3.13-.43,1.69-6.11,3.47-12.18,5.63-17.99.39-1,.82-2.04,1.21-3.03,2.56-6.11,6.41-14.13,12.35-15.04.69-.13,1.52-.09,2.21.3.3.13.56.43.82.74.43.82.48,1.99.48,3.16Z"/>
          <polygon fill="#40917d" points="470.84 386.96 475.52 386.05 472.53 386.96 470.84 386.96"/>
          <path fill="#2ca884" d="m482.11,358.53c-1,2.17-1.99,4.38-2.99,6.63l6.63-2.51-6.98,3.38c-.3.78-.69,1.6-1,2.38-.56,1.39-1.21,2.82-1.78,4.16l6.02-1.86-6.28,2.6c-.95,2.3-1.86,4.59-2.82,6.89l5.03-1.6-5.33,2.3c-.82,2.04-1.56,4.03-2.34,6.07h-1.52c.39-.87.74-1.73,1.08-2.64l-.04-1.73-.3-5.63.56,4.55.26,1.95c.74-1.82,1.52-3.51,2.25-5.33l-.56-7.19.95,6.33c1.08-2.38,2.12-4.77,3.21-7.11l-1.08-8.62,1.43,7.84c.17-.52.43-.95.61-1.43.52-1.08,1.08-2.21,1.56-3.29l-.13-10.27.56,9.36c.95-1.86,1.82-3.81,2.77-5.63h0c.26-.52.52-.95.69-1.43h-.04l.52-8.15v7.15c1.69-3.25,3.38-6.41,5.2-9.58-1.82,3.38-3.51,6.85-5.2,10.36v.13h-.04c-.17.35-.39.74-.56,1.17l5.63-2.43-5.98,3.21Z"/>
        </g>
        <g>
          <path fill="#3cb999" d="m440.59,349.82c0,7.63,2.64,14.74,5.5,21.37,1.95,4.55,4.07,8.93,6.41,13.18.43.87.95,1.73,1.43,2.51h5.59l.56.13c0-.09-.04-.09-.04-.13h4.59c-.3-1.3-.61-2.6-1-3.81-.04-.3-.17-.56-.26-.87-.04-.13-.04-.3-.13-.43-1.69-6.11-3.38-12.18-5.59-17.99-.39-1-.82-2.04-1.21-3.03-2.51-6.07-6.33-14.09-12.27-15.08-.69-.13-1.52-.09-2.21.3-.3.13-.56.43-.82.74-.52.91-.56,2.04-.56,3.12Z"/>
          <polygon fill="#40917d" points="459.48 386.96 454.76 385.96 457.79 386.96 459.48 386.96"/>
          <path fill="#2ca884" d="m448.17,358.49c1,2.17,1.99,4.38,2.95,6.63l-6.54-2.6,6.98,3.38c.3.78.69,1.6,1,2.38.56,1.39,1.21,2.82,1.78,4.16l-5.94-1.86,6.28,2.64c.95,2.3,1.86,4.59,2.82,6.89l-5.03-1.6,5.33,2.3c.82,2.04,1.56,4.03,2.34,6.07h1.52c-.39-.87-.74-1.73-1.08-2.64l.13-1.73.3-5.63-.56,4.55-.39,2.04c-.74-1.82-1.52-3.6-2.25-5.33l.56-7.19-.95,6.33c-1.08-2.38-2.12-4.81-3.21-7.11l1.08-8.71-1.43,7.84c-.17-.52-.43-.95-.61-1.43-.52-1.08-1.08-2.21-1.56-3.29l.09-10.31-.61,9.36c-.95-1.86-1.82-3.81-2.77-5.68h0c-.26-.52-.43-.95-.69-1.43h.04l-.43-8.15-.09,7.19c-1.69-3.25-3.38-6.41-5.2-9.58,1.82,3.38,3.51,6.85,5.2,10.36v.13h.04c.17.35.39.74.52,1.17l-5.63-2.43,6.02,3.29Z"/>
        </g>
        <g>
          <path fill="#2ca884" d="m473.09,359.27c-.13,1.52-.3,3.08-.43,4.59-.52,4.55-1.13,9.06-1.86,13.52-.26,1.39-.52,2.82-.74,4.16-.04.35-.13.74-.26,1.08-.3,1.52-.69,2.95-1.21,4.33h-10.23c-.13-1.52-.17-3.03-.26-4.55-.43-9.58-.82-19.16-.04-28.65.61-8.19,1.91-19.2,8.15-23.66.74-.52,1.65-.95,2.51-.95.39,0,.82.13,1.13.35.87.65,1.39,1.86,1.82,3.08,2.6,8.32,2.3,17.68,1.43,26.7Z"/>
          <path fill="#3cb999" d="m464.99,359.7c-.13,1.86-.3,3.73-.43,5.55l5.89-5.46-5.94,6.46c-.26,3.08-.43,6.2-.61,9.23l5.03-4.59-5.03,5.63c-.13,2.73-.3,5.42-.43,8.15l3.6-2.82,1.86-1.43-1.95,1.86-3.51,3.29c0,.43-.04.95-.04,1.39h-1.65c.13-1.73.26-3.38.39-5.11l-3.08-7.84,3.12,6.63c.17-2.38.39-4.81.61-7.19l-3.21-7.54,3.34,6.41c.3-3.25.61-6.46.95-9.71l-4.25-8.93,4.33,7.76c.04-.65.13-1.3.17-1.95.17-1.52.39-3.03.56-4.55l-3.81-11.22,4.03,9.92c.3-2.6.69-5.2,1.08-7.76h0c.04-.65.17-1.3.26-1.95l-.04.09-2.56-9.27,2.64,7.93c.69-4.55,1.43-9.1,2.3-13.57-.74,4.77-1.43,9.58-1.99,14.39l.04.13h-.04c-.04.52-.13,1-.17,1.52l5.29-5.98-5.5,7.24c-.3,2.95-.61,5.98-.95,9.01l6.33-6.63-6.37,7.76c-.04,1.08-.17,2.08-.26,3.16Z"/>
        </g>
      </g>
      <polygon fill="#599bf1" points="490.87 384.95 490.21 389.61 486.41 416.05 483.93 433.3 450.87 433.3 445.25 400.72 442.97 387.5 442.53 384.95 490.87 384.95"/>
      <path fill="#2f80e0" d="m490.21,389.61l-3.8,26.44c-3.03-5.56-7.62-10.29-13.19-13.31-6.41-3.48-14-4.64-21.17-3.46-2.4.39-4.69,1.68-6.8,1.45l-2.28-13.23c12.2-2.33,24.78-2.77,37.12-1.3,3.58.43,7.43,1.18,10.12,3.41Z"/>
      <path fill="#599bf1" d="m444.4,384.77h44.59c2.42,0,4.38,1.96,4.38,4.37h0c0,2.42-1.96,4.37-4.38,4.37h-44.59c-2.42,0-4.38-1.96-4.38-4.37h0c0-2.42,1.96-4.37,4.38-4.37Z"/>
    </g>
  </g>
  <g>
    <rect width="98.86" height="9.28" x="40.41" y="355.3" fill="#0e386b"/>
    <path fill="#2f80e0" d="m12.4,240.76l17.52,119.78h125.9v-12.91H43.64l-14.83-122.27h-3.1c-8.21,0-14.5,7.28-13.31,15.4Z"/>
    <path fill="#599bf1" d="m20.64,235.01l18.56,112.66h110.56v-13.76h-48.42l-19.77-108.55H28.81c-5.12,0-9.01,4.6-8.17,9.65Z"/>
    <rect width="71.7" height="2.71" x="8.6" y="397.05" fill="#0e386b" transform="rotate(-78.31 44.449 398.407)"/>
    <rect width="2.71" height="72.12" x="88.66" y="361.97" fill="#0e386b" transform="rotate(-10.36 89.984 397.965)"/>
    <rect width="2.71" height="70.95" x="135.44" y="362.56" fill="#0e386b"/>
  </g>
  <g>
    <g>
      <g>
        <path fill="#ffbbae" d="m179.63,356.32s6.44,8.42,10.25,12.84c3.81,4.42,18.38-18.17,18.38-18.17,0,0-12.16,1.7-18-3.06-5-4.07-10.63,8.39-10.63,8.39Z"/>
        <path fill="#0e386b" d="m225.13,348.68h0s0,0,0,0c-.45,1.48-1.3,2.97-2.42,4.43-.16.2-.31.42-.49.62-3.21,3.94-7.93,7.32-11.68,10.83-4.39,4.1-8.86,8.13-13.62,11.8-1.13.87-2.79.61-3.72-.59l-6.91-9.03c-.41-.55-.25-1.32.36-1.58l10.79-4.75.91-.97s-4.61-8.1-.61-9.53c3.99-1.44,18.59-3.66,18.59-3.66,0,0,.01,0,.03,0,0,0,.01,0,.01,0,8.9-2.61,8.77,2.44,8.77,2.44h0Z"/>
      </g>
      <g>
        <path fill="#ffbbae" d="m159.93,405.11s-1.31,10.53-1.69,16.35c-.38,5.82,25.85-.08,25.85-.08,0,0-9.86-7.31-10.7-14.8-.71-6.4-13.46-1.47-13.46-1.47Z"/>
        <path fill="#0e386b" d="m197.74,431.56h0s-.01,0-.01,0c-1.36.74-3.01,1.2-4.82,1.46-.26.03-.52.08-.78.1-5.05.57-10.79-.34-15.93-.46-6.01-.15-12.01-.41-17.98-1.13-1.42-.17-2.42-1.52-2.24-3.02l1.4-11.29c.09-.68.75-1.11,1.36-.88l11.02,4.18,1.33-.05s2.39-9,6.25-7.23c3.86,1.77,15.83,10.41,15.83,10.41,0,0,0,0,.01.02,0,0,0,0,0,0,8.18,4.38,4.55,7.89,4.55,7.89h0Z"/>
      </g>
      <path fill="#0e386b" d="m105.3,290.07l36.18,30.84,35.75,83.43s-10.08,15.13-23.38,11c0,0-25.21-64.63-35.3-70.59-10.08-5.96-33.46-9.17-33.46-9.17-11.66-22.11-10.5-38.8,10.38-47.13,3.32-1.33,7.1-.7,9.82,1.62Z"/>
      <path fill="#11478e" d="m56.07,305.63s1.53,40.34,29.64,35.45c28.11-4.89,48.28-20.78,48.28-20.78l41.56,42.78s14.36-8.25,14.67-18.95c0,0-37.59-55.62-51.65-54.7-14.06.92-44.31,5.5-44.31,5.5l-38.2,10.7Z"/>
    </g>
    <g>
      <path fill="#323c77" d="m90.12,233.08c2.93-5.21,1.98-12.3-2.22-16.55-1.08-1.1-2.41-2.12-2.75-3.62-.38-1.68.6-3.32,1.28-4.9,3.83-8.99-5.09-27.78-16.57-25.28-4.91,1.07-9.7,1.05-13.85,4.26-3.76,2.92-6.33,7.46-6.5,12.26-.11,3.18.65,6.65-1.03,9.35-1.04,1.68-2.85,2.72-4.59,3.67s-3.56,1.94-4.67,3.58c-1.66,2.46.42,4.5-.48,6.47-1.15,2.51-3.46,3.37-3.48,6.59-.03,5.44,3.85,10.5,7.47,14.21,13.9,1.75,27.86.52,41.23-3.67,1.56-.49,3.16-1.05,4.37-2.15s2.39-2.71,1.78-4.23Z"/>
      <path fill="#ffbbae" d="m147.06,203.03s-21.64,26.12-23.41,27.58c-.37.31-1.22.75-2.33,1.26-4.19,1.91-12.12,4.75-12.12,4.75l-6.01-15,8.96-1.85,2.78-.57,25.55-22.02,6.58,5.86Z"/>
      <g opacity=".5">
        <path fill="#ec8a6b" d="m121.32,231.86c-4.19,1.91-12.12,4.75-12.12,4.75l-6.01-15,8.96-1.85c.02.15.04.29.07.44.37,2.2,1.15,4.34,2.26,6.28.91,1.58,2.03,2.23,3.5,3.23.68.47,2.06,1.24,3.34,2.15Z"/>
      </g>
      <g>
        <path fill="#ffbbae" d="m132.71,204.27s6.49-4.83,7.77-7.1c1.27-2.27,3.01-11.81,3.25-12.78s5.62-7.62,7.31-7.34.31,2.68.31,2.68c0,0,1.88-1.16,1.6,1.59,0,0-2.62,4.91-2.49,6.08s-.27,2.75-.27,2.75l3.74-1.33s5.07-3.23,2.91.56c-2.16,3.79-4.45,6.54-4.45,6.54,0,0-2.13,6.15-5.33,7.11l-6.3,6.87-8.05-5.63Z"/>
        <path fill="#fbad27" d="m114.93,238.62c-9.68,5.65-20.82,8.75-32.02,8.95-1.96.81-3.15,1.31-3.15,1.31l.36-1.32c-.07,0-.14,0-.21,0l.3-.31,5.92-21.4.62-2.26c5.48-1.19,10.96-2.38,16.44-3.57,1.07-.23,3.12-1.08,4.32-.89.12.02.24.05.34.09,1.55.64,3.1,4.32,3.81,5.74,1.53,3.06,2.56,6.37,3,9.76.17,1.29.26,2.59.25,3.9Z"/>
        <g opacity=".14">
          <path fill="#121936" d="m96.83,241.85c-5.32,2.17-10.41,4.27-13.63,5.6l2.93-21.6s8.84,10.27,10.7,16Z"/>
        </g>
      </g>
      <path fill="#ffbbae" d="m31.95,273.84s.89,33.82,16.55,24.24c15.66-9.58,11.75-24.82,11.75-24.82l-28.31.57Z"/>
      <path fill="#fbad27" d="m98.67,295.08c-9.56,3.34-18.51,8.54-26.59,14.81-3.99,3.1-7.77,6.45-11.3,9.97-.83.83-1.65,1.67-2.44,2.53-.31.33-.86.17-.95-.27l-3.63-18.35-4.86-24.57-3.74-14.82-2.63-10.44-5.01-19.9c3.21-6.42,23.16-13.28,23.16-13.28l9.93,1.24c8.97,1.4,23.81-1.29,26.22,6.33,1.16,3.66-4.95,15.94-4.55,19.76,1.06,10.13,4.04,20.04,8.68,29.11,1.14,2.22,2.37,4.39,3.7,6.5,1.08,1.72,3.78,4.26,4.06,6.3.52,3.8-7.08,4.06-10.04,5.1Z"/>
      <g opacity=".12">
        <path fill="#323c77" d="m72.08,309.89c-3.99,3.1-7.77,6.45-11.3,9.97-.83.83-1.65,1.67-2.44,2.53-.31.33-.86.17-.95-.27l-3.63-18.35-4.86-24.57-3.74-14.82-2.63-10.44c2.08-3.59,10.65-13.77,10.65-13.77,0,0,2.19,27.7,2.19,28.93s13.82-8.73,13.82-8.73c0,0-12.71,30.93-13.12,35.03-.36,3.59,7.05,15.72,16.01,14.5Z"/>
      </g>
      <path fill="#fbad27" d="m37.58,233.82s-11.46,28.88-6.88,47.67c4.79,3.02,12.31.74,19.94-1.77l2.53-44.33-15.59-1.57Z"/>
      <g>
        <g>
          <path fill="#ffbbae" d="m61.97,217.87c.62-1.19,1.08-2.43,1.33-3.61l.16-.78.86-3.55.32-1.48.23-.9.7.22,5.56,1.65,6.59,2.02-.55,2.39-.32,1.42c-.64,2.9-1.81,5.76-2.36,8.63-.38,1.98.79,3.41,1.35,5.16.67,2.1.38,5.01-.18,7.11-.93,3.43-4,6.94-7.54,4.31-3.72-2.76-6.66-6.54-8.49-10.78-.64-1.47-2.32-4.88-1.87-6.5.24-.87,1.59-1.64,2.23-2.37.78-.9,1.44-1.9,1.99-2.95Z"/>
          <path fill="#ff8288" d="m76.73,217.15l-1.47,4.16s-4.01,4.04-10.78-7.49c-.32-.51-.29-1.09-.42-1.57l1.21-2.76c2.54.06,7.96,4.46,11.47,7.67h0s0,0,0,0Z"/>
        </g>
        <path fill="#ffbbae" d="m58.29,210.75c-.92-.96-1.19-1.88-1.23-3.18-.08-.91-.13-1.11-.46-2.1-.27-.86-.28-1.83-.03-2.72.34-1.34,1.12-2.52,1.84-3.71,2.28-3.55,4.71-7.3,8.5-9.08,3.27-1.62,7.34-1.45,10.47.36,6.26,3.61,6.61,11.98,6.49,18.38-.1,5.05-2.36,11.52-8.29,12.01-8.27.74-12.9-7.5-12.9-7.5-1.59-.48-3.29-1.36-4.39-2.46h0s0,0,0,0Z"/>
        <path fill="#100f36" d="m72.94,203.97c-.64-.17-1.31.25-1.48.88-.17.64.25,1.31.88,1.48.64.17,1.31-.25,1.48-.88.17-.64-.25-1.31-.88-1.48Z"/>
        <g>
          <path fill="#16182c" d="m72.94,203.97c-.64-.17-1.31.25-1.48.88-.17.64.25,1.31.88,1.48.64.17,1.31-.25,1.48-.88.17-.64-.25-1.31-.88-1.48Z"/>
          <path fill="#fff" d="m72.32,204.52c-.32-.08-.59.09-.67.41-.08.32.09.59.41.67.32.08.59-.09.67-.41.08-.26-.09-.59-.41-.67Z"/>
        </g>
        <g>
          <path fill="#16182c" d="m81.65,204.43c-.64-.17-1.31.25-1.48.88-.17.64.25,1.31.88,1.48.64.17,1.31-.25,1.48-.88.17-.64-.25-1.31-.88-1.48h0Z"/>
          <path fill="#fff" d="m81.04,204.97c-.32-.08-.59.09-.67.41-.08.32.09.59.41.67.32.08.59-.09.67-.41.08-.32-.09-.59-.41-.67Z"/>
        </g>
        <g>
          <path fill="#ff8288" d="m59.84,207.48c-.21.31-.43.75-.46,1.14-.03.45.08.85.32,1.19s.61.62.92.89c-.38-.22-.75-.5-1.05-.84-.31-.34-.47-.81-.44-1.26.11-1.88-.77.44.53-1.26.28-.31.62-.61,1.02-.85-.34.3-.62.61-.83.99h0Z"/>
          <path fill="#ff8288" d="m61.2,208.46c-.26-.08-.51-.1-.77-.17-.26-.08-.51-.1-.71-.04-.13,0-.55.04-.62.17-.07.12.21.26.2.39-.06-.13-.05-.26.02-.38s.21-.25.34-.3c.26-.11.59-.09.84-.02.26.02.51.1.76.24s.5.29.69.43l-.76-.3h0Z"/>
        </g>
        <path fill="#323c77" d="m55.61,205.92c.34.74.82,1.48,1.22,2.21.06.07.12.21.18.27-.03-.58.14-1.22.43-1.91.39-.83.91-1.35,1.48-1.57.54-.23,1.13-.21,1.74.01,2.14.79,2.55,3.47,2.9,5.42.35,1.95,1.05,6.23,1.37,1.98.35-4.82,2.45-9.8,7.31-11.61,1.78-.66,3.23-1.08,4.49-2.68,1.13-1.44,1.71-3.29,1.6-5.11,2.53,1.59,3.5,3.68,5.04,6.06,1.94,3,1.8-2.74,1.58-4.21-.31-2.03-1.08-3.79-2.5-5.28-.04-.04-.07-.08-.12-.13-2.49-2.58-5.94-4.88-9.55-5.05-6.69-.32-14.96,2.09-16.44,9.23-.42,2.1-1.83,3.72-2.03,5.94-.2,2.22.35,4.43,1.3,6.44h0s0,0,0,0Z"/>
        <path fill="#323c77" d="m69.27,203.43c-.06-.07-.12-.2-.05-.33.65-1.06,1.46-1.66,2.44-1.86,1.46-.31,2.57.54,2.62.54.12.07.12.2.11.26-.07.12-.2.12-.33.05-.07,0-1.06-.71-2.31-.46-.85.14-1.53.75-2.17,1.69-.07.06-.14.12-.2.12h-.13s0-.01,0-.01h0Z"/>
        <path fill="#323c77" d="m79.12,202.46c-.12-.07-.12-.2-.05-.33.98-1.17,1.92-1.7,2.88-1.64,1.22.14,1.94,1.15,1.94,1.21.06.13.05.26-.08.32-.13.06-.26.05-.32-.08,0,0-.59-.94-1.63-1h0c-.84-.05-1.65.42-2.55,1.47-.07.06-.13.06-.2.05s-.13,0,0,0h0s0,0,0,0Z"/>
        <g>
          <path fill="#ff8288" d="m78.16,205c-.09.34-.11.68-.06,1.03.1.7.27,1.33.57,1.97.12.28.38.58.5.93.19.36.23.78.07,1.11-.23.33-.52.59-.87.71-.35.11-.7.16-1.05.15.35-.05.77-.09,1.05-.21.35-.12.65-.38.73-.65.16-.34.04-.69-.08-.97-.12-.28-.31-.57-.5-.93-.31-.64-.47-1.41-.5-2.1.02-.42.05-.76.13-1.1.09-.34.25-.68.41-1.01-.16.34-.25.68-.41,1.08h0s0,0,0,0Z"/>
          <path fill="#ff8288" d="m75.95,210.81c-.2-.08-.41-.09-.68-.11.22-.19.42-.18.7-.16.2.08.47.17.6.38-.21-.01-.41-.09-.62-.1h0Z"/>
        </g>
        <ellipse cx="70.69" cy="209.39" fill="#ff8288" rx="1.17" ry="2.41" transform="rotate(-88.99 70.703 209.4)"/>
        <ellipse cx="81.44" cy="209.11" fill="#ff8288" rx="1.29" ry="1.76" transform="rotate(-89 81.43 209.101)"/>
        <g>
          <path fill="#342f46" d="m79.57,213.91c.04.81-1.25,1.84-2.88,1.91-1.64.08-3.01-.84-3.04-1.64-.04-.81,1.27-1.2,2.91-1.27s2.98.2,3.02,1Z"/>
          <path fill="#ff8288" d="m76.59,213.68c-1.16.05-2.15.59-2.61,1.19.51.55,1.54,1,2.7.95,1.17-.05,2.15-.59,2.61-1.19-.51-.55-1.54-1-2.7-.95Z"/>
          <path fill="#fff" d="m73.91,213.6c.7.14,1.65.18,2.68.13s1.98-.17,2.66-.38c-.5-.38-1.52-.5-2.7-.45s-2.19.28-2.65.7Z"/>
        </g>
      </g>
      <polygon fill="#fff" points="106.65 228.32 101.61 275.07 64.94 277.36 70.44 228.32 106.65 228.32"/>
      <g>
        <g>
          <path fill="#ffbbae" d="m62.17,274.3l4.83-14.06c9.27-5.6,14.74-8.48,14.74-8.48,1.64-1.85.94-3.14.94-3.14,2.08-2.14.05-3.14.05-3.14,2.34-1.79-.5-3.05-.5-3.05,1.44-1.37.75-1.8.75-1.8-1.3-2.26-15.27,3.19-15.27,3.19-1.91.34-.71-1.8-.71-1.8,4.55-7.43,2.04-6.6,2.04-6.6-.75-.36-3.74,2.69-5.7,4.82-1.02,1.11-1.78,2.45-2.11,3.93-2.67,12.02-7.29,25.7-7.29,25.7l8.24,4.43Z"/>
          <rect width="7.64" height=".43" x="75.03" y="243.49" fill="#ff8288" transform="rotate(-25.85 78.838 243.703)"/>
          <rect width="6.73" height=".43" x="76.39" y="246.81" fill="#ff8288" transform="rotate(-27.48 79.737 246.98)"/>
          <rect width="5.74" height=".43" x="77.43" y="250" fill="#ff8288" transform="rotate(-33.87 80.296 250.212)"/>
        </g>
        <path fill="#ffbbae" d="m44.41,296.56c1.15.3,2.48.48,4.02.52,0,0,.36.16,1.13-.24,1.23-.65,3.51-2.73,6.98-9.25,3.42-6.41,8-17.13,13.89-34.98h0c.68-2.05-.82-4.17-2.97-4.21l-2.86-.05c-.95-.02-1.86.39-2.48,1.1l-13.55,15.66c-.1.11-.19.24-.27.36l-6.68,10.41c-.04.07-.09.14-.12.21-.45.85-3.3,6.36-3.47,11.52-.13,3.9,1.27,7.6,6.39,8.93Z"/>
      </g>
    </g>
  </g>
  <rect width="500" height="1.59" x="6" y="432.71"/>
  <g>
    <polygon fill="#517ec0" points="51.67 119.59 72.06 138.35 70.65 142.1 69.2 147.63 54.05 124.84 51.67 119.59"/>
    <polygon fill="#fff" points="51.67 119.59 80.52 139.24 70.65 142.1 51.67 119.59"/>
    <polygon fill="#003567" points="68.56 143.15 69.2 147.63 61.86 136.6 68.56 143.15"/>
    <polygon fill="#fff" points="55.81 145.61 51.67 119.59 68.56 143.15 55.81 145.61"/>
  </g>
  <path fill="#fff" d="m116.24,163.01c-.07-.53-.55-.91-1.09-.85l-.9.11c-.07,0-.15.03-.22.05-.21-.67-.55-1.28-.98-1.8.06-.05.12-.11.18-.17l.56-.72c.33-.42.25-1.04-.17-1.37l-.27-.21c-.42-.33-1.04-.25-1.37.17l-.56.72c-.05.06-.08.12-.11.19-.61-.3-1.27-.5-1.97-.55.01-.09.02-.18,0-.27l-.11-.9c-.07-.53-.55-.91-1.09-.85l-.34.04c-.53.07-.91.55-.85,1.09l.11.9c.01.09.04.18.07.26-.66.22-1.25.57-1.76,1.01-.06-.1-.14-.18-.23-.26l-.72-.56c-.42-.33-1.04-.25-1.37.17l-.21.27c-.33.42-.25,1.04.17,1.37l.72.56c.1.07.2.13.31.16-.3.6-.49,1.26-.54,1.96-.13-.04-.27-.06-.41-.04l-.9.11c-.53.07-.91.55-.85,1.09l.04.34c.07.53.55.91,1.09.85l.9-.11c.14-.02.27-.06.38-.13.22.66.55,1.26.99,1.77-.13.06-.25.16-.35.28l-.56.72c-.33.42-.25,1.04.17,1.37l.27.21c.42.33,1.04.25,1.37-.17l.56-.72c.09-.11.14-.24.18-.36.6.31,1.25.52,1.94.59-.04.13-.06.27-.04.41l.11.9c.07.53.55.91,1.09.85l.34-.04c.53-.07.91-.55.85-1.09l-.11-.9c-.01-.12-.05-.23-.11-.34.67-.2,1.27-.52,1.8-.95.06.1.14.19.23.26l.72.56c.42.33,1.04.25,1.37-.17l.21-.27c.33-.42.25-1.04-.17-1.37l-.72-.56c-.07-.06-.16-.1-.24-.14.32-.6.52-1.26.6-1.95.09.01.18.02.28,0l.9-.11c.53-.07.91-.55.85-1.09l-.04-.34h0Zm-6.89,4.61c-2.02.25-3.87-1.18-4.12-3.21s1.18-3.87,3.21-4.12c2.02-.25,3.87,1.18,4.12,3.21.25,2.02-1.18,3.87-3.21,4.12Z"/>
  <path fill="#fff" d="m472.05,92.4c-.07-.53-.55-.91-1.09-.85l-.9.11c-.07,0-.15.03-.22.05-.21-.67-.55-1.28-.98-1.8.06-.05.12-.11.18-.17l.56-.72c.33-.42.25-1.04-.17-1.37l-.27-.21c-.42-.33-1.04-.25-1.37.17l-.56.72c-.05.06-.08.12-.11.19-.61-.3-1.27-.5-1.97-.55.01-.09.02-.18,0-.27l-.11-.9c-.07-.53-.55-.91-1.09-.85l-.34.04c-.53.07-.91.55-.85,1.09l.11.9c.01.09.04.18.07.26-.66.22-1.25.57-1.76,1.01-.06-.1-.14-.18-.23-.26l-.72-.56c-.42-.33-1.04-.25-1.37.17l-.21.27c-.33.42-.25,1.04.17,1.37l.72.56c.1.07.2.13.31.16-.3.6-.49,1.26-.54,1.96-.13-.04-.27-.06-.41-.04l-.9.11c-.53.07-.91.55-.85,1.09l.04.34c.07.53.55.91,1.09.85l.9-.11c.14-.02.27-.06.38-.13.22.66.55,1.26.99,1.77-.13.06-.25.16-.35.28l-.56.72c-.33.42-.25,1.04.17,1.37l.27.21c.42.33,1.04.25,1.37-.17l.56-.72c.09-.11.14-.24.18-.36.6.31,1.25.52,1.94.59-.04.13-.06.27-.04.41l.11.9c.07.53.55.91,1.09.85l.34-.04c.53-.07.91-.55.85-1.09l-.11-.9c-.01-.12-.05-.23-.11-.34.67-.2,1.27-.52,1.8-.95.06.1.14.19.23.26l.72.56c.42.33,1.04.25,1.37-.17l.21-.27c.33-.42.25-1.04-.17-1.37l-.72-.56c-.07-.06-.16-.1-.24-.14.32-.6.52-1.26.6-1.95.09.01.18.02.28,0l.9-.11c.53-.07.91-.55.85-1.09l-.04-.34h0Zm-6.89,4.61c-2.02.25-3.87-1.18-4.12-3.21s1.18-3.87,3.21-4.12c2.02-.25,3.87,1.18,4.12,3.21.25,2.02-1.18,3.87-3.21,4.12Z"/>
  <path fill="#fff" d="m131.97,105.76c-.04-.29-.3-.49-.58-.45l-.48.06s-.08.01-.12.03c-.11-.36-.29-.68-.53-.96.03-.03.07-.06.09-.09l.3-.38c.18-.23.14-.56-.09-.73l-.14-.11c-.23-.18-.56-.14-.73.09l-.3.38s-.04.07-.06.1c-.32-.16-.68-.27-1.06-.3,0-.05,0-.1,0-.15l-.06-.48c-.04-.29-.3-.49-.58-.45l-.18.02c-.29.04-.49.3-.45.58l.06.48c0,.05.02.1.04.14-.35.12-.67.31-.94.54-.03-.05-.07-.1-.12-.14l-.38-.3c-.23-.18-.56-.14-.73.09l-.11.14c-.18.23-.14.56.09.73l.38.3c.05.04.11.07.17.09-.16.32-.26.68-.29,1.05-.07-.02-.14-.03-.22-.02l-.48.06c-.29.04-.49.3-.45.58l.02.18c.04.29.3.49.58.45l.48-.06c.07,0,.14-.03.2-.07.12.35.3.67.53.95-.07.03-.13.08-.19.15l-.3.38c-.18.23-.14.56.09.73l.14.11c.23.18.56.14.73-.09l.3-.38c.05-.06.08-.13.09-.2.32.17.67.28,1.04.31-.02.07-.03.14-.02.22l.06.48c.04.29.3.49.58.45l.18-.02c.29-.04.49-.3.45-.58l-.06-.48c0-.06-.03-.13-.06-.18.36-.11.68-.28.96-.51.03.05.07.1.12.14l.38.3c.23.18.56.14.73-.09l.11-.14c.18-.23.14-.56-.09-.73l-.38-.3s-.08-.06-.13-.07c.17-.32.28-.67.32-1.04.05,0,.1,0,.15,0l.48-.06c.29-.04.49-.3.45-.58l-.02-.18h0Zm-3.69,2.47c-1.08.13-2.07-.63-2.21-1.72s.63-2.07,1.72-2.21c1.08-.13,2.07.63,2.21,1.72.13,1.08-.63,2.07-1.72,2.21Z"/>
  <path fill="#fff" d="m232.97,402.76c-.04-.29-.3-.49-.58-.45l-.48.06s-.08.01-.12.03c-.11-.36-.29-.68-.53-.96.03-.03.07-.06.09-.09l.3-.38c.18-.23.14-.56-.09-.73l-.14-.11c-.23-.18-.56-.14-.73.09l-.3.38s-.04.07-.06.1c-.32-.16-.68-.27-1.06-.3,0-.05,0-.1,0-.15l-.06-.48c-.04-.29-.3-.49-.58-.45l-.18.02c-.29.04-.49.3-.45.58l.06.48c0,.05.02.1.04.14-.35.12-.67.31-.94.54-.03-.05-.07-.1-.12-.14l-.38-.3c-.23-.18-.56-.14-.73.09l-.11.14c-.18.23-.14.56.09.73l.38.3c.05.04.11.07.17.09-.16.32-.26.68-.29,1.05-.07-.02-.14-.03-.22-.02l-.48.06c-.29.04-.49.3-.45.58l.02.18c.04.29.3.49.58.45l.48-.06c.07,0,.14-.03.2-.07.12.35.3.67.53.95-.07.03-.13.08-.19.15l-.3.38c-.18.23-.14.56.09.73l.14.11c.23.18.56.14.73-.09l.3-.38c.05-.06.08-.13.09-.2.32.17.67.28,1.04.31-.02.07-.03.14-.02.22l.06.48c.04.29.3.49.58.45l.18-.02c.29-.04.49-.3.45-.58l-.06-.48c0-.06-.03-.13-.06-.18.36-.11.68-.28.96-.51.03.05.07.1.12.14l.38.3c.23.18.56.14.73-.09l.11-.14c.18-.23.14-.56-.09-.73l-.38-.3s-.08-.06-.13-.07c.17-.32.28-.67.32-1.04.05,0,.1,0,.15,0l.48-.06c.29-.04.49-.3.45-.58l-.02-.18h0Zm-3.69,2.47c-1.08.13-2.07-.63-2.21-1.72s.63-2.07,1.72-2.21c1.08-.13,2.07.63,2.21,1.72.13,1.08-.63,2.07-1.72,2.21Z"/>
</svg>